<svg xmlns="http://www.w3.org/2000/svg" version="1.1" xmlns:xlink="http://www.w3.org/1999/xlink" width="28" height="28"><svg xmlns="http://www.w3.org/2000/svg" version="1.1" xmlns:xlink="http://www.w3.org/1999/xlink" width="28" height="28"><svg version="1.1" id="svg1" width="28" height="28" viewBox="0 0 28 28" xmlns="http://www.w3.org/2000/svg" xmlns:svg="http://www.w3.org/2000/svg">
  <defs id="defs1"></defs>
  <g id="g1">
    <path id="rect2-9" style="display:inline;fill:#195aba;fill-opacity:1;stroke-width:0.318697" d="M 0.79101,-0.02148403 14.39062,14.947265 0,28.021484 H 22.1875 V 24.384765 H 22.01562 V 3.3027348 h 0.17188 v -3.32421883 z"></path>
    <path id="rect2" style="display:inline;fill:#4485f4;fill-opacity:1;stroke-width:0.318697" d="M 8.7910156,-0.02148438 21.984375,14.5 v 0.816406 L 8,28.021484 H 21.984375 22.714844 125.81641 V -0.02148438 H 22.714844 21.984375 Z M 22.714844,3.3027344 h 5.166015 v 8.1914066 l 2.435547,-8.1914066 h 5.142578 l -3.136718,9.5195316 3.4375,11.5625 h -5.664063 l -2.214844,-9.03711 v 9.03711 h -5.166015 z m 54.863281,0 h 5.261719 v 8.8554686 l 1.640625,-5.0527342 h 4.425781 l -2.134766,6.8886722 2.773438,10.390625 h -5.064453 l -1.640625,-7.527344 v 7.527344 h -5.261719 z m 33.050785,0 h 5.25976 v 4.7402344 c 0.45139,-0.4166674 0.93815,-0.7291668 1.45899,-0.9375 0.52951,-0.2083336 1.0944,-0.3125 1.69336,-0.3125 0.92014,0 1.70138,0.2343744 2.34375,0.703125 0.65104,0.4687504 1.0447,1.0106329 1.18359,1.6269531 0.14757,0.6076396 0.22266,1.7243901 0.22266,3.3476561 v 11.914063 h -5.26172 v -12.16211 c 0,-1.006945 -0.0521,-1.652994 -0.15625,-1.939453 -0.0955,-0.2864583 -0.31684,-0.4296874 -0.66407,-0.4296874 -0.32118,0 -0.53754,0.1462667 -0.65039,0.4414064 -0.11284,0.295139 -0.16992,0.881075 -0.16992,1.757812 v 12.332032 h -5.25976 z M 49.423828,4.8007812 h 5.273438 v 2.7207032 h 1.419922 1.011718 V 4.8007812 h 5.273438 v 2.7207032 h 1.419922 v 2.7343746 h -1.419922 v 9.246094 c 0,1.137154 0.05707,1.770182 0.169922,1.900391 0.121528,0.130208 0.611327,0.195312 1.470703,0.195312 v 2.78711 h -2.121094 c -1.197918,0 -2.054253,-0.04904 -2.566406,-0.144532 -0.512154,-0.104166 -0.96289,-0.33355 -1.353516,-0.689453 -0.390625,-0.364584 -0.633032,-0.776258 -0.728515,-1.236328 -0.09549,-0.46875 -0.144532,-1.562498 -0.144532,-3.28125 v -8.777344 h -1.011718 -1.419922 v 9.246094 c 0,1.137154 0.05707,1.770182 0.169922,1.900391 0.121527,0.130208 0.611327,0.195312 1.470703,0.195312 v 2.78711 h -2.121094 c -1.197918,0 -2.054253,-0.04904 -2.566406,-0.144532 -0.512154,-0.104166 -0.962891,-0.33355 -1.353516,-0.689453 -0.390625,-0.364584 -0.633029,-0.776258 -0.728516,-1.236328 -0.09549,-0.46875 -0.144531,-1.562498 -0.144531,-3.28125 V 10.255859 H 48.291016 V 7.5214844 h 1.132812 z m 53.773442,0 h 5.27343 v 2.7207032 h 1.41992 v 2.7343746 h -1.41992 v 9.246094 c 0,1.137154 0.0571,1.770182 0.16992,1.900391 0.12154,0.130208 0.61133,0.195312 1.47071,0.195312 v 2.78711 h -2.12305 c -1.19792,0 -2.0523,-0.04904 -2.56445,-0.144532 -0.51216,-0.104166 -0.96289,-0.33355 -1.35352,-0.689453 -0.39062,-0.364584 -0.63498,-0.776258 -0.73047,-1.236328 -0.0955,-0.46875 -0.14257,-1.562498 -0.14257,-3.28125 v -8.777344 h -1.13282 V 7.5214844 h 1.13282 z M 41.835938,6.7929688 c 1.779516,0 3.120658,0.3174905 4.023437,0.9511718 0.902779,0.6250008 1.446614,1.3962659 1.628906,2.3164064 0.182292,0.911459 0.273438,2.796437 0.273438,5.652344 v 8.671875 h -5.117188 v -1.53711 c -0.321181,0.61632 -0.737846,1.080078 -1.25,1.392578 -0.503473,0.30382 -1.107421,0.457032 -1.810547,0.457032 -0.92014,0 -1.766492,-0.257378 -2.539062,-0.769532 -0.76389,-0.520834 -1.146484,-1.653643 -1.146484,-3.398437 v -1.417969 c 0,-1.293404 0.205294,-2.175781 0.613281,-2.644531 0.407986,-0.468751 1.418618,-1.015624 3.033203,-1.640625 1.727433,-0.677084 2.651909,-1.132812 2.773437,-1.367188 C 42.439887,13.224609 42.5,12.747831 42.5,12.027344 42.5,11.124565 42.43186,10.538629 42.292969,10.269531 42.16276,9.9917537 41.941407,9.8535156 41.628906,9.8535156 c -0.355903,0 -0.577257,0.1171875 -0.664062,0.3515624 -0.08681,0.225695 -0.13086,0.81966 -0.13086,1.783203 v 1.810547 h -4.935546 v -1.160156 c 0,-1.336807 0.153211,-2.365451 0.457031,-3.0859376 0.3125,-0.7291676 0.932507,-1.370225 1.861328,-1.9257813 0.92882,-0.5555562 2.134763,-0.8339845 3.619141,-0.8339843 z m 28.427734,0 c 1.779516,0 3.120658,0.3174905 4.023437,0.9511718 0.902779,0.6250008 1.446615,1.3962659 1.628907,2.3164064 0.182292,0.911459 0.273437,2.796437 0.273437,5.652344 v 8.671875 h -5.117187 v -1.53711 c -0.321181,0.61632 -0.737847,1.080078 -1.25,1.392578 -0.503473,0.30382 -1.107421,0.457032 -1.810547,0.457032 -0.92014,0 -1.766492,-0.257378 -2.539063,-0.769532 -0.76389,-0.520834 -1.146484,-1.653643 -1.146484,-3.398437 v -1.417969 c 0,-1.293404 0.205294,-2.175781 0.613281,-2.644531 0.407987,-0.468751 1.418618,-1.015624 3.033203,-1.640625 1.727433,-0.677084 2.65191,-1.132812 2.773438,-1.367188 0.121528,-0.234375 0.18164,-0.711153 0.18164,-1.43164 0,-0.902779 -0.06814,-1.488715 -0.207031,-1.757813 -0.130208,-0.2777771 -0.351562,-0.4160154 -0.664062,-0.4160154 -0.355904,0 -0.577257,0.1171875 -0.664063,0.3515624 -0.08681,0.225695 -0.130859,0.81966 -0.130859,1.783203 v 1.810547 h -4.935547 v -1.160156 c 0,-1.336807 0.153211,-2.365451 0.457031,-3.0859376 0.312501,-0.7291676 0.932508,-1.370225 1.861328,-1.9257813 0.928821,-0.5555562 2.134764,-0.8339845 3.619141,-0.8339843 z m 25.345703,0 c 1.779516,0 3.12066,0.3174905 4.023437,0.9511718 0.902778,0.6250008 1.444658,1.3962659 1.626958,2.3164064 0.18229,0.911459 0.27343,2.796437 0.27343,5.652344 v 8.671875 h -5.117184 v -1.53711 c -0.321181,0.61632 -0.737847,1.080078 -1.25,1.392578 -0.503473,0.30382 -1.105468,0.457032 -1.808594,0.457032 -0.92014,0 -1.766492,-0.257378 -2.539063,-0.769532 C 90.05447,23.4069 89.671875,22.274091 89.671875,20.529297 v -1.417969 c 0,-1.293404 0.203341,-2.175781 0.611328,-2.644531 0.407987,-0.468751 1.420571,-1.015624 3.035156,-1.640625 1.727433,-0.677084 2.65191,-1.132812 2.773438,-1.367188 0.121528,-0.234375 0.18164,-0.711153 0.181641,-1.43164 0,-0.902779 -0.0701,-1.488715 -0.208985,-1.757813 -0.130208,-0.2777771 -0.351562,-0.4160154 -0.664062,-0.4160154 -0.355904,0 -0.577257,0.1171875 -0.664063,0.3515624 -0.08681,0.225695 -0.128906,0.81966 -0.128906,1.783203 v 1.810547 h -4.935547 v -1.160156 c 0,-1.336807 0.151258,-2.365451 0.455078,-3.0859376 0.312501,-0.7291676 0.934461,-1.370225 1.863281,-1.9257813 0.928821,-0.5555562 2.134764,-0.8339845 3.619141,-0.8339843 z M 42.5,16.167969 c -0.842015,0.61632 -1.331814,1.132161 -1.470703,1.548828 -0.130209,0.416667 -0.195313,1.015624 -0.195313,1.796875 0,0.894098 0.05707,1.472005 0.169922,1.732422 0.121528,0.260417 0.355903,0.390625 0.703125,0.390625 0.329862,0 0.541233,-0.09917 0.636719,-0.298828 C 42.447917,21.129557 42.5,20.590713 42.5,19.722656 Z m 28.427734,0 c -0.842015,0.61632 -1.331814,1.132161 -1.470703,1.548828 -0.130208,0.416667 -0.195312,1.015624 -0.195312,1.796875 0,0.894098 0.05707,1.472005 0.169922,1.732422 0.121528,0.260417 0.355902,0.390625 0.703125,0.390625 0.329861,0 0.541232,-0.09917 0.636718,-0.298828 0.104167,-0.208334 0.15625,-0.747178 0.15625,-1.615235 z m 25.345704,0 c -0.842017,0.61632 -1.331815,1.132161 -1.470704,1.548828 -0.130208,0.416667 -0.195312,1.015624 -0.195312,1.796875 0,0.894098 0.05512,1.472005 0.167969,1.732422 0.121528,0.260417 0.355902,0.390625 0.703125,0.390625 0.329861,0 0.543182,-0.09917 0.638672,-0.298828 0.104166,-0.208334 0.15625,-0.747178 0.15625,-1.615235 z"></path>
    <rect style="opacity:1;fill:#4485f4;fill-opacity:1;fill-rule:nonzero" id="rect18" width="21.880091" height="63.376816" x="22.634577" y="-16.975933"></rect>
  </g>
</svg></svg><style>@media (prefers-color-scheme: light) { :root { filter: none; } }
@media (prefers-color-scheme: dark) { :root { filter: none; } }
</style></svg>